<svg xmlns="http://www.w3.org/2000/svg" version="1.1" width="512" height="512" x="0" y="0" viewBox="0 0 512 512"
     style="enable-background:new 0 0 512 512" xml:space="preserve"><g>
  <path
    d="M512 256c0 51.775-15.37 99.965-41.796 140.246a256.576 256.576 0 0 1-36.561 44.074C387.605 484.707 324.995 512 256 512s-131.605-27.293-177.633-71.67a250.51 250.51 0 0 1-16.196-17.105 254.956 254.956 0 0 1-20.376-26.979C15.37 355.965 0 307.775 0 256s15.37-99.965 41.796-140.246a254.263 254.263 0 0 1 20.376-26.99c19.968-23.124 44.001-42.632 70.99-57.417C169.629 11.358 211.487 0 256 0s86.371 11.358 122.838 31.347c36.948 20.24 68.347 49.33 91.366 84.407C496.63 156.035 512 204.225 512 256z"
    style="" fill="#FDD142"></path>
<path
  d="M470.204 71.837v324.409C424.458 465.962 345.61 512 256 512S87.542 465.962 41.796 396.246V71.837c0-22.361 18.129-40.49 40.49-40.49h347.429c22.36 0 40.489 18.129 40.489 40.49z"
  style="" fill="#92482f"></path>
<path
  d="M102.661 31.347c-22.361 0-40.49 18.129-40.49 40.49v351.389a254.956 254.956 0 0 1-20.376-26.979V71.837c0-22.361 18.129-40.49 40.49-40.49h20.376z"
  style="" fill="#863924"></path>
<path
  d="M433.643 123.685V440.32C387.605 484.707 324.995 512 256 512s-131.605-27.293-177.633-71.67V94.333c0-11.546 9.352-20.908 20.898-20.908h284.118l50.26 50.26z"
  style="" fill="#eaeaea"></path>
<path
  d="M341.704 67.024H311.29c0-7.008-5.681-12.688-12.688-12.688h-85.194c-7.008 0-12.688 5.681-12.688 12.688h-30.414c-10.233 0-18.527 8.294-18.527 18.527v37.264c0 10.233 8.294 18.527 18.527 18.527h171.4c10.233 0 18.527-8.294 18.527-18.527V85.55c-.002-10.232-8.297-18.526-18.529-18.526z"
  style="" fill="#e8dbc4"></path>
<path
  d="M341.704 55.53H311.29c0-7.008-5.681-12.688-12.688-12.688h-85.194c-7.008 0-12.688 5.681-12.688 12.688h-30.414c-10.233 0-18.527 8.294-18.527 18.527v37.264c0 10.233 8.294 18.527 18.527 18.527h171.4c10.233 0 18.527-8.294 18.527-18.527V74.056c-.002-10.232-8.297-18.526-18.529-18.526z"
  style="" fill="#fdd142"></path>
<path
  d="M383.319 252.424H171.737c-5.665 0-10.258-4.592-10.258-10.258v-1.113c0-5.665 4.592-10.258 10.258-10.258h211.581c5.665 0 10.258 4.592 10.258 10.258v1.113c0 5.666-4.592 10.258-10.257 10.258zM383.319 342.3H171.737c-5.665 0-10.258-4.592-10.258-10.258v-1.113c0-5.665 4.592-10.258 10.258-10.258h211.581c5.665 0 10.258 4.592 10.258 10.258v1.113c0 5.666-4.592 10.258-10.257 10.258zM383.319 432.176H171.737c-5.665 0-10.258-4.592-10.258-10.258v-1.113c0-5.665 4.592-10.258 10.258-10.258h211.581c5.665 0 10.258 4.592 10.258 10.258v1.113c0 5.666-4.592 10.258-10.257 10.258zM128.692 252.424c-5.665 0-10.258-4.592-10.258-10.258v-1.113c0-5.665 4.592-10.258 10.258-10.258 5.665 0 10.258 4.592 10.258 10.258v1.113c-.001 5.666-4.593 10.258-10.258 10.258zM128.692 342.3c-5.665 0-10.258-4.592-10.258-10.258v-1.113c0-5.665 4.592-10.258 10.258-10.258 5.665 0 10.258 4.592 10.258 10.258v1.113c-.001 5.666-4.593 10.258-10.258 10.258zM128.692 432.176c-5.665 0-10.258-4.592-10.258-10.258v-1.113c0-5.665 4.592-10.258 10.258-10.258 5.665 0 10.258 4.592 10.258 10.258v1.113c-.001 5.666-4.593 10.258-10.258 10.258z"
  style="" fill="#313b57"></path>
<path d="M383.38 109.041V73.424l50.26 50.26h-35.617c-8.087 0-14.643-6.556-14.643-14.643z" style="" fill="#ffffff"
></path>
<path
  d="M314.777 107.667H197.232c-6.925 0-12.538-5.613-12.538-12.538s5.613-12.538 12.538-12.538h117.545c6.925 0 12.538 5.613 12.538 12.538-.001 6.924-5.614 12.538-12.538 12.538z"
  style="" fill="#eaeaea"></path>
  <circle cx="89.872" cy="85.159" r="83.592" style="" fill="#50b4a3"></circle>
  <path
    d="m66.426 130.893-21.048-25.257c-3.695-4.434-3.095-11.022 1.337-14.716l.001-.001c4.434-3.694 11.022-3.095 14.715 1.339l12.468 14.961 45.26-62.123c3.398-4.664 9.934-5.691 14.598-2.293 4.664 3.398 5.691 9.934 2.293 14.597l-53.152 72.957c-4.006 5.5-12.116 5.763-16.472.536z"
    style="" fill="#ffffff"></path>
</g>
</svg>
